<?xml version="1.0" ?><svg viewBox="0 0 24 24" xmlns="http://www.w3.org/2000/svg"><defs><style>.cls-1{fill:none;}.cls-2{fill:#008fff;}.cls-3{fill:#fff;}</style></defs><title/><g data-name="Layer 2" id="Layer_2"><g data-name="Layer 3" id="Layer_3"><rect class="cls-1" height="24" width="24"/><path class="cls-2" d="M1,12C1,4,4,1,12,1S23,4,23,12,20,23,12,23,1,20,1,12"/><path class="cls-3" d="M17.16,7H15.22a.26.26,0,0,1-.17-.07L14,5.83a.26.26,0,0,0-.17-.07H10.06a.26.26,0,0,0-.17.07L8.83,6.89A.26.26,0,0,1,8.66,7H6.84A1.43,1.43,0,0,0,5.4,8.4v7.44a1.43,1.43,0,0,0,1.44,1.44H17.16a1.43,1.43,0,0,0,1.44-1.44V8.4A1.43,1.43,0,0,0,17.16,7ZM12,15.36a3.24,3.24,0,1,1,3.24-3.24A3.24,3.24,0,0,1,12,15.36Z"/><circle class="cls-3" cx="12" cy="12.12" r="2.16"/></g></g></svg>