<?xml version="1.0" encoding="iso-8859-1"?>
<!-- Generator: Adobe Illustrator 16.0.0, SVG Export Plug-In . SVG Version: 6.00 Build 0)  -->
<!DOCTYPE svg PUBLIC "-//W3C//DTD SVG 1.1//EN" "http://www.w3.org/Graphics/SVG/1.1/DTD/svg11.dtd">
<svg fill="#fff" version="1.1" id="Capa_1" xmlns="http://www.w3.org/2000/svg" xmlns:xlink="http://www.w3.org/1999/xlink" x="0px" y="0px"
	 width="792px" height="792px" viewBox="0 0 792 792" style="enable-background:new 0 0 792 792;" xml:space="preserve">
<g>
	<g>
		<g>
			<path d="M491.961,69.909H300.019V27.547C300.019,12.354,312.403,0,327.626,0h136.759c15.203,0,27.588,12.354,27.588,27.547
				v42.362H491.961z M319.945,49.983h152.092V27.547c0-4.204-3.438-7.621-7.662-7.621H327.626c-4.234,0-7.681,3.417-7.681,7.621
				V49.983z"/>
			<path d="M561.383,792H230.619c-30.138,0-54.656-24.538-54.656-54.706V99.697c0-30.167,24.518-54.706,54.646-54.706h330.764
				c30.137,0,54.664,24.539,54.664,54.706v637.598C616.049,767.462,591.52,792,561.383,792z M230.609,74.88
				c-13.649,0-24.757,11.129-24.757,24.817v637.598c0,13.688,11.108,24.816,24.757,24.816h330.764
				c13.658,0,24.777-11.128,24.777-24.816V99.697c0-13.688-11.119-24.817-24.777-24.817H230.609z"/>
			<path d="M534.951,738.46H257.05c-15.203,0-27.587-12.403-27.587-27.646V331.899l333.086-173.611v552.515
				C562.549,726.047,550.174,738.46,534.951,738.46z M249.388,343.984v366.819c0,4.265,3.438,7.722,7.662,7.722h277.911
				c4.234,0,7.672-3.468,7.672-7.722V191.146L249.388,343.984z"/>
		</g>
	</g>
</g>
<g>
</g>
<g>
</g>
<g>
</g>
<g>
</g>
<g>
</g>
<g>
</g>
<g>
</g>
<g>
</g>
<g>
</g>
<g>
</g>
<g>
</g>
<g>
</g>
<g>
</g>
<g>
</g>
<g>
</g>
</svg>
