<?xml version="1.0" ?><svg viewBox="0 0 24 24" xmlns="http://www.w3.org/2000/svg"><defs><style>.cls-1{fill:none;}.cls-2{fill:#5e59e2;}.cls-3{fill:#4641c9;}.cls-4{fill:#fff;}</style></defs><title/><g data-name="Layer 2" id="Layer_2"><g data-name="Layer 2" id="Layer_2-2"><g id="Browser"><rect class="cls-1" height="24" width="24"/><path class="cls-2" d="M1,12C1,4,4,1,12,1S23,4,23,12,20,23,12,23,1,20,1,12"/><path class="cls-3" d="M14.94,15.33h-.57a4.14,4.14,0,0,1-6.31-1.77A10,10,0,0,1,7,12.89a5,5,0,0,0,8.59,2.42C15.39,15.33,15.17,15.33,14.94,15.33Z"/><path class="cls-4" d="M16.85,11.57a5,5,0,0,0-9-2.37h0l0,0C6.54,9.46,6.14,10,6,10.42s0,1.14,1,2a12.3,12.3,0,0,0,4.3,2,14,14,0,0,0,3.54.52,7.51,7.51,0,0,0,.84,0c1.59-.16,2.07-.78,2.19-1.26S18,12.45,16.85,11.57Zm-10-.94a.68.68,0,0,1,.42-.39,4.33,4.33,0,0,0-.25.92A.65.65,0,0,1,6.84,10.63Zm4.76,3a11.78,11.78,0,0,1-3.83-1.7,4.07,4.07,0,0,1,.57-2l0-.06a4.13,4.13,0,0,1,7.65,2A1.21,1.21,0,0,1,16,12a4,4,0,0,1-.56,2.07A12.19,12.19,0,0,1,11.6,13.6Zm5.56-.18c0,.16-.24.34-.67.48a5.2,5.2,0,0,0,.33-1.23C17.12,13,17.2,13.26,17.16,13.42Z"/></g></g></g></svg>